<svg xmlns="http://www.w3.org/2000/svg" viewBox="0 0 64 64" role="img" aria-label="LFV Mainz Quiz">
  <rect width="64" height="64" fill="#FFFFFF"/>
  <rect x="4" y="4" width="56" height="56" fill="#FFFFFF" stroke="#1A2B6D" stroke-width="4"/>
  <path d="M14 45h36" fill="none" stroke="#00ADEF" stroke-width="4" stroke-linecap="square"/>
  <path d="M18 21h28l-14 6z" fill="#1A2B6D"/>
  <path d="M32 14v22" fill="none" stroke="#1A2B6D" stroke-width="3" stroke-linecap="square"/>
  <path d="M24 36h16" fill="none" stroke="#1A2B6D" stroke-width="3" stroke-linecap="square"/>
  <path d="M32 9c-6 0-10 3-10 8h7c0-2 1-3 3-3s3 1 3 3c0 4-7 4-7 11h7c0-4 8-5 8-12 0-4-4-7-11-7z" fill="#00ADEF"/>
  <rect x="29" y="31" width="7" height="7" fill="#00ADEF"/>
</svg>
